<mxfile host="app.diagrams.net" agent="Mozilla/5.0 (Windows NT 10.0; Win64; x64) AppleWebKit/537.36 (KHTML, like Gecko) Chrome/135.0.0.0 Safari/537.36 Edg/135.0.0.0" version="27.0.4" pages="2">
  <diagram name="Página-1" id="xnwmlVUI0P3rJxv9uqpm">
    <mxGraphModel dx="2677" dy="655" grid="0" gridSize="10" guides="1" tooltips="1" connect="1" arrows="1" fold="1" page="0" pageScale="1" pageWidth="583" pageHeight="827" math="0" shadow="0">
      <root>
        <mxCell id="0" />
        <mxCell id="1" parent="0" />
        <mxCell id="CF3sWAzzt9UxJ3Tq0tPS-12" value="Subnet" style="sketch=0;outlineConnect=0;gradientColor=none;html=1;whiteSpace=wrap;fontSize=12;fontStyle=0;shape=mxgraph.aws4.group;grIcon=mxgraph.aws4.group_subnet;strokeColor=#879196;fillColor=none;verticalAlign=top;align=left;spacingLeft=30;fontColor=#879196;dashed=0;" vertex="1" parent="1">
          <mxGeometry x="-395" y="40" width="515" height="410" as="geometry" />
        </mxCell>
        <mxCell id="CF3sWAzzt9UxJ3Tq0tPS-15" style="edgeStyle=none;curved=1;rounded=0;orthogonalLoop=1;jettySize=auto;html=1;fontSize=12;startSize=8;endSize=8;" edge="1" parent="1" source="CF3sWAzzt9UxJ3Tq0tPS-3" target="CF3sWAzzt9UxJ3Tq0tPS-13">
          <mxGeometry relative="1" as="geometry" />
        </mxCell>
        <mxCell id="CF3sWAzzt9UxJ3Tq0tPS-3" value="EC2" style="sketch=0;points=[[0,0,0],[0.25,0,0],[0.5,0,0],[0.75,0,0],[1,0,0],[0,1,0],[0.25,1,0],[0.5,1,0],[0.75,1,0],[1,1,0],[0,0.25,0],[0,0.5,0],[0,0.75,0],[1,0.25,0],[1,0.5,0],[1,0.75,0]];outlineConnect=0;fontColor=#232F3E;fillColor=#ED7100;strokeColor=#ffffff;dashed=0;verticalLabelPosition=bottom;verticalAlign=top;align=center;html=1;fontSize=12;fontStyle=0;aspect=fixed;shape=mxgraph.aws4.resourceIcon;resIcon=mxgraph.aws4.ec2;" vertex="1" parent="1">
          <mxGeometry x="-310" y="209.1" width="78" height="78" as="geometry" />
        </mxCell>
        <mxCell id="CF3sWAzzt9UxJ3Tq0tPS-5" style="edgeStyle=none;curved=1;rounded=0;orthogonalLoop=1;jettySize=auto;html=1;fontSize=12;startSize=8;endSize=8;" edge="1" parent="1" source="CF3sWAzzt9UxJ3Tq0tPS-4" target="CF3sWAzzt9UxJ3Tq0tPS-3">
          <mxGeometry relative="1" as="geometry" />
        </mxCell>
        <mxCell id="CF3sWAzzt9UxJ3Tq0tPS-9" style="edgeStyle=none;curved=1;rounded=0;orthogonalLoop=1;jettySize=auto;html=1;fontSize=12;startSize=8;endSize=8;" edge="1" parent="1" source="CF3sWAzzt9UxJ3Tq0tPS-4" target="CF3sWAzzt9UxJ3Tq0tPS-6">
          <mxGeometry relative="1" as="geometry" />
        </mxCell>
        <mxCell id="CF3sWAzzt9UxJ3Tq0tPS-4" value="" style="points=[];aspect=fixed;html=1;align=center;shadow=0;dashed=0;fillColor=#FF6A00;strokeColor=none;shape=mxgraph.alibaba_cloud.alb_application_load_balancer_01;" vertex="1" parent="1">
          <mxGeometry x="-551" y="228" width="47.400000000000006" height="40.2" as="geometry" />
        </mxCell>
        <mxCell id="CF3sWAzzt9UxJ3Tq0tPS-14" style="edgeStyle=none;curved=1;rounded=0;orthogonalLoop=1;jettySize=auto;html=1;fontSize=12;startSize=8;endSize=8;" edge="1" parent="1" source="CF3sWAzzt9UxJ3Tq0tPS-6" target="CF3sWAzzt9UxJ3Tq0tPS-13">
          <mxGeometry relative="1" as="geometry" />
        </mxCell>
        <mxCell id="CF3sWAzzt9UxJ3Tq0tPS-6" value="EC2" style="sketch=0;points=[[0,0,0],[0.25,0,0],[0.5,0,0],[0.75,0,0],[1,0,0],[0,1,0],[0.25,1,0],[0.5,1,0],[0.75,1,0],[1,1,0],[0,0.25,0],[0,0.5,0],[0,0.75,0],[1,0.25,0],[1,0.5,0],[1,0.75,0]];outlineConnect=0;fontColor=#232F3E;fillColor=#ED7100;strokeColor=#ffffff;dashed=0;verticalLabelPosition=bottom;verticalAlign=top;align=center;html=1;fontSize=12;fontStyle=0;aspect=fixed;shape=mxgraph.aws4.resourceIcon;resIcon=mxgraph.aws4.ec2;" vertex="1" parent="1">
          <mxGeometry x="-312" y="102" width="78" height="78" as="geometry" />
        </mxCell>
        <mxCell id="CF3sWAzzt9UxJ3Tq0tPS-16" style="edgeStyle=none;curved=1;rounded=0;orthogonalLoop=1;jettySize=auto;html=1;fontSize=12;startSize=8;endSize=8;" edge="1" parent="1" source="CF3sWAzzt9UxJ3Tq0tPS-7" target="CF3sWAzzt9UxJ3Tq0tPS-13">
          <mxGeometry relative="1" as="geometry" />
        </mxCell>
        <mxCell id="CF3sWAzzt9UxJ3Tq0tPS-7" value="EC2" style="sketch=0;points=[[0,0,0],[0.25,0,0],[0.5,0,0],[0.75,0,0],[1,0,0],[0,1,0],[0.25,1,0],[0.5,1,0],[0.75,1,0],[1,1,0],[0,0.25,0],[0,0.5,0],[0,0.75,0],[1,0.25,0],[1,0.5,0],[1,0.75,0]];outlineConnect=0;fontColor=#232F3E;fillColor=#ED7100;strokeColor=#ffffff;dashed=0;verticalLabelPosition=bottom;verticalAlign=top;align=center;html=1;fontSize=12;fontStyle=0;aspect=fixed;shape=mxgraph.aws4.resourceIcon;resIcon=mxgraph.aws4.ec2;" vertex="1" parent="1">
          <mxGeometry x="-312" y="316" width="78" height="78" as="geometry" />
        </mxCell>
        <mxCell id="CF3sWAzzt9UxJ3Tq0tPS-8" style="edgeStyle=none;curved=1;rounded=0;orthogonalLoop=1;jettySize=auto;html=1;entryX=0;entryY=0.5;entryDx=0;entryDy=0;entryPerimeter=0;fontSize=12;startSize=8;endSize=8;" edge="1" parent="1" source="CF3sWAzzt9UxJ3Tq0tPS-4" target="CF3sWAzzt9UxJ3Tq0tPS-7">
          <mxGeometry relative="1" as="geometry" />
        </mxCell>
        <mxCell id="CF3sWAzzt9UxJ3Tq0tPS-13" value="" style="sketch=0;points=[[0,0,0],[0.25,0,0],[0.5,0,0],[0.75,0,0],[1,0,0],[0,1,0],[0.25,1,0],[0.5,1,0],[0.75,1,0],[1,1,0],[0,0.25,0],[0,0.5,0],[0,0.75,0],[1,0.25,0],[1,0.5,0],[1,0.75,0]];outlineConnect=0;fontColor=#232F3E;fillColor=#C925D1;strokeColor=#ffffff;dashed=0;verticalLabelPosition=bottom;verticalAlign=top;align=center;html=1;fontSize=12;fontStyle=0;aspect=fixed;shape=mxgraph.aws4.resourceIcon;resIcon=mxgraph.aws4.database;" vertex="1" parent="1">
          <mxGeometry x="-14" y="206" width="78" height="78" as="geometry" />
        </mxCell>
        <mxCell id="CF3sWAzzt9UxJ3Tq0tPS-17" value="" style="points=[];aspect=fixed;html=1;align=center;shadow=0;dashed=0;fillColor=#FF6A00;strokeColor=none;shape=mxgraph.alibaba_cloud.acms_application_configuration_manangement;" vertex="1" parent="1">
          <mxGeometry x="-551" y="117.3" width="51" height="47.400000000000006" as="geometry" />
        </mxCell>
        <mxCell id="CF3sWAzzt9UxJ3Tq0tPS-18" style="edgeStyle=none;curved=1;rounded=0;orthogonalLoop=1;jettySize=auto;html=1;entryX=0.462;entryY=0.846;entryDx=0;entryDy=0;entryPerimeter=0;fontSize=12;startSize=8;endSize=8;" edge="1" parent="1" source="CF3sWAzzt9UxJ3Tq0tPS-4" target="CF3sWAzzt9UxJ3Tq0tPS-17">
          <mxGeometry relative="1" as="geometry" />
        </mxCell>
      </root>
    </mxGraphModel>
  </diagram>
  <diagram id="nN3QZwS4oRSl12EFbzTG" name="Página-2">
    <mxGraphModel grid="0" page="0" gridSize="10" guides="1" tooltips="1" connect="1" arrows="1" fold="1" pageScale="1" pageWidth="583" pageHeight="827" math="0" shadow="0">
      <root>
        <mxCell id="0" />
        <mxCell id="1" parent="0" />
      </root>
    </mxGraphModel>
  </diagram>
</mxfile>
